<svg width="1208" height="675" viewBox="0 0 1208 675" fill="none" xmlns="http://www.w3.org/2000/svg">
<path opacity="0.5" fill-rule="evenodd" clip-rule="evenodd" d="M0 212.192C17.3166 225.851 39.7066 237.923 65.5659 246.75C136.007 270.793 232.299 270.79 322.197 213.058C448.326 132.059 601.227 36.3476 813.366 72.2765C919.437 90.2413 983.869 135.333 1013.6 198.817C1043.35 262.327 1038.43 344.378 1005.49 436.389C978.301 512.326 992.616 575.864 1036.8 628.405C1050.77 645.024 1067.73 660.539 1087.3 675H1088.99C1069.01 660.353 1051.74 644.623 1037.56 627.762C993.611 575.494 979.362 512.33 1006.43 436.726C1039.41 344.599 1044.41 262.245 1014.51 198.393C984.591 134.517 919.808 89.2899 813.533 71.2906C600.978 35.2913 447.779 131.222 321.656 212.217C232.046 269.764 136.079 269.761 65.8889 245.803C39.8046 236.9 17.2949 224.694 0 210.916V212.192ZM0 104.905C1.82166 106.444 3.69885 108.012 5.63035 109.603C26.4024 126.717 53.4636 146.54 85.3109 162.158C149.021 193.402 231.902 207.818 321.861 150.058C448.016 69.0593 600.95 -26.6524 813.133 9.27651C919.216 27.2395 996.952 77.7144 1039.95 146.633C1082.94 215.548 1091.23 302.969 1058.31 394.914C1031.12 470.829 1042.11 533.017 1081.33 583.552C1109.44 619.782 1152.05 649.995 1205.43 675H1207.8C1153.61 649.865 1110.45 619.446 1082.12 582.939C1043.13 532.701 1032.17 470.878 1059.25 395.251C1092.26 303.058 1083.97 215.312 1040.79 146.103C997.621 76.8976 919.608 26.2917 813.3 8.29054C600.701 -27.7087 447.47 68.2215 321.321 149.217C231.735 206.737 149.241 192.396 85.7512 161.261C53.999 145.689 27.0048 125.917 6.26622 108.831C4.10915 107.054 2.01986 105.306 0 103.595V104.905Z" fill="#ACC8CD"/>
</svg>
