<svg width="558" height="717" viewBox="0 0 558 717" fill="none" xmlns="http://www.w3.org/2000/svg">
<path opacity="0.5" fill-rule="evenodd" clip-rule="evenodd" d="M558 151.915C531.464 117.994 498.774 87.8238 462.253 63.532C370.133 2.25798 253.546 -21.6789 149.75 26.0083C83.3714 56.5049 40.1198 120.27 18.0575 190.874C-4.00457 261.478 -4.90549 339.003 13.4965 397.127C31.5341 454.1 82.2025 500.623 147.906 540.433C213.621 580.251 294.468 613.408 372.995 643.606C388.843 649.7 404.596 655.674 420.111 661.557C470.139 680.529 517.695 698.562 558 716.684V715.588C517.743 697.51 470.3 679.52 420.439 660.612L420.416 660.603L420.395 660.595C404.9 654.72 389.172 648.755 373.354 642.672C294.827 612.475 214.055 579.345 148.424 539.578C82.7804 499.804 32.3751 453.443 14.4499 396.825C-3.88171 338.924 -2.99815 261.61 19.012 191.173C41.0218 120.736 84.1299 57.2569 150.168 26.917C253.565 -20.587 369.782 3.22529 461.699 64.3646C498.505 88.846 531.398 119.302 558 153.541V151.915ZM558 284.281C528.644 245.929 489.305 210.684 445.004 182.654C360.278 129.047 257.252 101.735 170.931 129.645C115.686 147.507 83.1428 192.406 69.5521 244.146C55.9639 295.877 61.3012 354.502 81.8562 399.95C102.001 444.49 149.625 483.679 209.753 518.973C269.899 554.278 342.649 585.736 413.157 614.774C427.372 620.628 441.495 626.384 455.405 632.053L455.426 632.061L455.447 632.07C491.805 646.887 526.709 661.112 558 674.956V673.862C526.788 660.064 492.007 645.889 455.805 631.136L455.804 631.135L455.79 631.13C441.875 625.459 427.751 619.703 413.538 613.849C343.03 584.811 270.339 553.376 210.259 518.111C150.162 482.835 102.776 443.779 82.7673 399.538C62.3079 354.302 56.9888 295.912 70.5193 244.4C84.0472 192.899 116.398 148.328 171.239 130.596C257.17 102.812 359.881 129.979 444.469 183.499C489.105 211.741 528.653 247.295 558 285.93V284.281Z" fill="#ACC8CD"/>
</svg>
