<svg width="943" height="788" viewBox="0 0 943 788" fill="none" xmlns="http://www.w3.org/2000/svg">
<path opacity="0.5" fill-rule="evenodd" clip-rule="evenodd" d="M709.938 0C710.581 5.42056 711.489 10.9152 712.706 16.473C720.494 52.0559 740.9 90.1803 785.045 128.007C895.061 222.276 938.794 391.555 832.954 529.611C750.12 637.658 621.284 681.622 497.673 672.286C374.056 662.949 255.734 600.312 193.931 495.246C144.342 410.945 75.2207 366.292 10.2247 348.143C6.80401 347.188 3.39464 346.306 0 345.496V346.524C3.30532 347.316 6.62496 348.176 9.95571 349.106C74.7121 367.188 143.616 411.683 193.069 495.753C255.068 601.152 373.717 663.927 497.598 673.283C621.485 682.64 750.674 638.579 833.748 530.219C939.97 391.664 896.036 221.795 785.696 127.248C741.698 89.5476 721.419 51.6083 713.683 16.2592C712.482 10.7748 711.584 5.35157 710.945 0H709.938ZM751.178 0C753.217 12.4302 756.247 25.3366 760.746 38.6085C773.879 77.3499 799.519 119.175 849.517 161.382C974.071 266.528 969.482 462.412 849.445 616.667C661.67 857.968 332.008 833.35 191.929 598.744C135.779 504.702 74.1246 456.27 17.0963 437.424C11.3465 435.524 5.64426 433.925 0 432.61V433.637C5.54108 434.935 11.1386 436.508 16.7825 438.374C73.5199 457.124 135.005 505.356 191.071 599.256C331.532 834.504 662.054 859.103 850.234 617.281C970.468 462.775 975.275 266.235 850.162 160.618C800.293 118.52 774.763 76.8446 761.693 38.2874C757.233 25.1305 754.223 12.333 752.191 0H751.178Z" fill="#ACC8CD"/>
</svg>
